<svg xmlns="http://www.w3.org/2000/svg" viewBox="0 0 130 130" id="github"><path fill="#44444f" d="m105.133 10.224-12.82-7.345a9.45 9.45 0 0 0-1.801-1.032l-.189-.107-.008.016C86.866.354 82.411.86 77.551 3.665L38.064 26.46c-10.857 6.269-19.74 21.655-19.74 34.193v45.591c0 6.114 2.123 10.45 5.547 12.577l-.033.06 14.248 8.073 8.012-13.95 31.453-18.157c10.855-6.269 19.74-21.656 19.74-34.193V23.876l7.842-13.652z" class="colordcf1f9 svgShape"></path><path fill="#e8ccf2" d="M105.133 10.224 91.41 7.005c-.561-.408-3.363-.398-4.002-.678l-1.018-.406-1.831-.341C81.11 4.178 82.411.859 77.551 3.664L38.064 26.46c-10.857 6.269-19.74 21.655-19.74 34.193v45.591c0 6.114 2.123 10.45 5.547 12.577l-.033.06 14.248 8.073 8.012-13.95 31.453-18.157c10.855-6.269 19.74-21.656 19.74-34.193V23.876l7.842-13.652z" class="colorcce6f2 svgShape"></path><path fill="#a43bc9" d="M19.076 54.085c-.479 2.232-.752 4.442-.752 6.568v45.591c0 6.114 2.123 10.45 5.547 12.577l-.033.06 14.248 8.073 8.012-13.95 31.453-18.157c1.844-1.065 3.627-2.41 5.322-3.945L19.076 54.085z" class="colorbfd9e8 svgShape"></path><path fill="#ffffff" d="M51.635 34.329c-10.857 6.268-19.742 21.656-19.742 34.193v45.592c0 12.537 8.885 17.666 19.742 11.396l39.484-22.795c10.857-6.268 19.742-21.655 19.742-34.193V22.931c0-12.537-8.885-17.665-19.742-11.396L51.635 34.329z" class="colorffffff svgShape"></path><path fill="#7137ae" d="M110.861 22.931c0-12.537-8.885-17.665-19.742-11.396L51.635 34.329c-10.857 6.268-19.742 21.656-19.742 34.193v45.592c0 12.537 8.885 17.666 19.742 11.396" opacity=".1" class="color5bc0d8 svgShape"></path><path fill="#ffffff" d="M42.865 129h-.002c-7.158 0-11.783-5.843-11.783-14.886V68.522c0-12.828 9.037-28.484 20.146-34.898l39.486-22.795c3.201-1.848 6.289-2.784 9.178-2.784 7.158 0 11.785 5.844 11.785 14.886v45.592c0 12.829-9.039 28.484-20.148 34.898l-39.486 22.795C48.84 128.063 45.754 129 42.865 129zM99.891 9.673c-2.6 0-5.414.863-8.363 2.564L52.041 35.034c-10.66 6.155-19.334 21.178-19.334 33.488v45.592c0 8.178 3.891 13.258 10.156 13.258h.002c2.6 0 5.412-.863 8.361-2.564l39.486-22.797c10.66-6.154 19.334-21.178 19.334-33.488V22.931c.001-8.178-3.89-13.258-10.155-13.258z" class="colorffffff svgShape"></path><path fill="#2e5022" d="M72.295 39.084c-14.812 8.553-26.778 29.333-26.731 46.414.039 13.666 7.757 20.825 18.426 18.764a2.76 2.76 0 0 0 1.828-2.541c-.003-.738-.029-2.674-.052-5.248-1.005.834-1.902 1.461-2.704 1.922-5.151 2.975-6.344-.846-6.344-.846-1.232-2.873-2.992-2.805-2.992-2.805-2.336-.496-.034-1.865.17-1.982l.014-.008c2.685-1.333 4.111.82 4.111.82 1.347 1.864 3.148 1.562 4.744.642 1.262-.728 2.395-1.843 3.068-2.581.237-2.144.927-3.903 1.692-5.119-5.959 2.66-12.227 3.621-12.26-8.232-.009-3.382 1.031-6.751 2.736-9.897-.273-.632-1.202-3.236.241-8.341 0 0 .195-.184.599-.418.972-.562 3.161-1.408 6.786-.668 2.134-1.917 4.425-3.588 6.709-4.916 2.279-1.307 4.572-2.283 6.716-2.836 3.61-4.916 5.792-6.593 6.761-7.153.405-.231.599-.273.599-.273 1.474 3.421.563 7.088.287 8.038 1.725 1.166 2.774 3.328 2.783 6.71.034 11.881-6.233 18.12-12.204 22.33.968.397 1.834 1.79 1.841 4.675.012 4.143-.017 7.493-.014 8.516.002.717.371 1.328 1.367.752.148-.086.311-.195.485-.336 10.629-10.244 18.274-26.264 18.235-39.93-.047-17.084-12.092-23.998-26.897-15.453" class="color2f3638 svgShape"></path><path d="M97.794 45.563c-3.58-10.248-13.652-13.317-25.499-6.479-14.812 8.553-26.778 29.333-26.731 46.414.039 13.625 7.713 20.777 18.332 18.777l1.916-3.318c-.01-.977-.029-2.549-.046-4.484-1.005.834-1.902 1.461-2.704 1.922-5.151 2.975-6.344-.846-6.344-.846-1.232-2.873-2.992-2.805-2.992-2.805-2.336-.496-.034-1.865.17-1.982l.014-.008c2.685-1.333 4.111.82 4.111.82 1.347 1.864 3.148 1.562 4.744.642 1.262-.728 2.395-1.843 3.068-2.581.237-2.144.927-3.903 1.692-5.119-5.959 2.66-12.227 3.621-12.26-8.232-.009-3.382 1.031-6.751 2.736-9.897-.273-.632-1.202-3.236.241-8.341 0 0 .195-.184.599-.418.972-.562 3.161-1.408 6.786-.668 2.134-1.917 4.425-3.588 6.709-4.916 2.279-1.307 4.572-2.283 6.716-2.836 3.61-4.916 5.792-6.593 6.761-7.153.405-.231.599-.273.599-.273 1.474 3.421.563 7.088.287 8.038 1.725 1.166 2.774 3.328 2.783 6.71.002.519-.024 1.013-.046 1.511l8.358-14.478z" fill="#000000" class="color000000 svgShape"></path><path d="M77.278 80.858c.035.015.069.04.104.058l.132-.229c-.078.056-.157.116-.236.171z" fill="#000000" class="color000000 svgShape"></path></svg>