<svg viewBox="100 100 355 285" id="icons" xmlns="http://www.w3.org/2000/svg" fill="#ffffff" stroke="#ffffff"><g id="SVGRepo_bgCarrier" stroke-width="0"></g><g id="SVGRepo_tracerCarrier" stroke-linecap="round" stroke-linejoin="round" stroke="#CCCCCC" stroke-width="15.36"></g><g id="SVGRepo_iconCarrier"><defs><style>.cls-1{fill:none;stroke:#88ff51;stroke-miterlimit:10;stroke-width:17.919999999999998;}</style></defs><path class="cls-1" d="M439.96,190.16c-4.12,14.02-13.61,27.72-22.8,40.96-3.31,4.78-6.77,9.77-9.75,14.53-.69-12.7-2.37-24.4-4.57-34.96,17.55-26.23,20.91-38.03,7.87-47.78-5.17-3.85-6.23-11.17-2.37-16.33,3.86-5.17,11.18-6.22,16.34-2.37,15.43,11.54,20.72,27.42,15.28,45.95Z"></path><path class="cls-1" d="M407.41,245.65c-.69-12.7-2.37-24.4-4.57-34.96-2.68-12.79-6.11-23.91-9.49-33.07-3.06-8.3-9.85-14.64-18.32-17.17-5.43-1.61-11.22-3.2-17.38-4.73l-14.03-41.02c-1.42-4.16-6.83-5.22-9.72-1.91l-29.07,33.3c-13.14-1.53-27.12-2.51-41.87-2.7-17.73-.23-34.45,.7-49.96,2.4l-29.97-34.36c-2.89-3.31-8.3-2.25-9.72,1.91l-14.37,41.98c-6.55,1.63-12.71,3.31-18.44,5.01-8.74,2.56-15.68,9.23-18.61,17.87-6.73,19.78-13.48,47.81-13.27,81.64,.19,32.45,6.71,59.38,13.27,78.67,2.95,8.62,9.93,15.26,18.67,17.81,30.06,8.76,71.44,17.19,120.87,16.72,46.07-.42,84.78-8.45,113.52-16.85,8.53-2.5,15.36-8.89,18.44-17.23,7.13-19.42,14.62-47.73,14.37-82.28-.03-3.76-.14-7.44-.35-11.03Zm-113.17,17.5l-57.52,33.23c-3.82,2.19-8.59-.55-8.59-4.96v-66.43c0-4.41,4.77-7.15,8.59-4.96l57.52,33.23c3.82,2.19,3.82,7.7,0,9.89Z"></path><path class="cls-1" d="M294.24,263.15l-57.52,33.23c-3.82,2.19-8.59-.55-8.59-4.96v-66.43c0-4.41,4.77-7.15,8.59-4.96l57.52,33.23c3.82,2.19,3.82,7.7,0,9.89Z"></path><path class="cls-1" d="M294.24,263.15l-57.52,33.23c-3.82,2.19-8.59-.55-8.59-4.96v-66.43c0-4.41,4.77-7.15,8.59-4.96l57.52,33.23c3.82,2.19,3.82,7.7,0,9.89Z"></path></g></svg>