<?xml version="1.0" standalone="no"?>
<!DOCTYPE svg PUBLIC "-//W3C//DTD SVG 20010904//EN"
 "http://www.w3.org/TR/2001/REC-SVG-20010904/DTD/svg10.dtd">
<svg version="1.0" xmlns="http://www.w3.org/2000/svg"
 width="710.000000pt" height="710.000000pt" viewBox="0 0 710.000000 710.000000"
 preserveAspectRatio="xMidYMid meet">
<metadata>
Created by potrace 1.14, written by Peter Selinger 2001-2017
</metadata>
<g transform="translate(0.000000,710.000000) scale(0.100000,-0.100000)"
fill="#000000" stroke="none">
<path d="M1491 6378 c-65 -18 -140 -79 -171 -139 -17 -33 -66 -163 -75 -199
-2 -8 -34 -100 -70 -205 -37 -104 -68 -197 -70 -205 -2 -8 -13 -40 -25 -70
-12 -30 -24 -64 -26 -74 -6 -33 -31 -49 -101 -67 -277 -68 -394 -126 -518
-254 -105 -109 -147 -199 -245 -520 -24 -81 -92 -366 -104 -440 -2 -11 -7 -36
-10 -55 -4 -19 -9 -48 -12 -65 -2 -16 -6 -41 -9 -55 -3 -14 -7 -45 -11 -70
-14 -113 -12 -98 -31 -260 -10 -93 -11 -854 0 -932 4 -32 10 -84 13 -115 3
-32 7 -69 9 -83 2 -14 6 -43 10 -65 3 -22 10 -65 15 -95 6 -30 12 -66 14 -80
9 -58 17 -106 22 -119 2 -8 7 -30 10 -48 3 -19 19 -87 35 -151 16 -64 31 -126
34 -137 16 -66 95 -311 120 -370 75 -177 257 -335 460 -401 89 -28 428 -116
545 -140 41 -9 84 -18 95 -21 11 -3 31 -7 45 -10 158 -31 220 -43 250 -47 19
-3 46 -8 60 -10 30 -6 95 -16 130 -21 77 -11 263 -35 310 -40 30 -4 66 -8 80
-10 22 -3 102 -10 235 -21 330 -26 1048 -26 1295 0 19 2 73 7 120 11 47 3 96
8 110 10 14 2 50 6 80 9 30 3 73 8 95 11 22 3 58 8 80 10 22 3 51 7 65 9 14 3
45 8 70 11 126 16 495 87 660 127 69 16 134 31 145 34 69 13 332 90 395 115
166 67 300 191 384 356 21 42 125 330 125 348 0 3 8 31 18 63 18 63 22 77 28
107 2 11 9 36 15 55 11 38 68 304 75 354 2 17 6 40 9 51 2 11 7 45 10 76 4 31
9 67 11 80 5 25 14 113 20 189 14 176 18 259 18 435 l0 200 85 125 c113 165
126 184 132 190 11 10 188 287 227 355 81 139 171 338 188 411 2 10 11 44 19
74 41 145 43 362 6 509 -36 146 -146 333 -256 436 -162 152 -240 192 -374 195
-25 1 -56 -1 -70 -4 -14 -3 -38 -9 -54 -12 -60 -13 -162 -83 -211 -146 -105
-132 -108 -349 -8 -486 26 -35 50 -59 104 -107 54 -47 69 -75 69 -126 0 -46
-24 -130 -53 -185 l-15 -29 -8 30 c-5 17 -9 33 -10 38 -1 4 -2 8 -4 10 -1 1
-3 9 -5 17 -7 31 -76 212 -95 249 -73 145 -208 273 -355 338 -28 12 -88 33
-135 47 -47 14 -117 34 -156 46 -39 11 -71 26 -71 33 -1 13 -127 387 -143 422
-5 11 -14 38 -20 60 -6 22 -15 49 -20 60 -5 11 -18 52 -31 90 -46 149 -107
224 -210 260 -43 16 -113 21 -154 11 -38 -8 -105 -38 -105 -47 0 -5 -6 -9 -12
-9 -7 0 -29 -20 -49 -43 -84 -97 -203 -232 -208 -237 -4 -3 -29 -32 -56 -65
-28 -32 -57 -66 -65 -75 -8 -9 -42 -47 -75 -85 -83 -96 -121 -136 -126 -131
-2 2 -35 7 -74 11 -38 3 -83 8 -100 10 -16 3 -77 7 -135 10 -363 20 -799 20
-1069 1 -42 -3 -112 -8 -156 -12 -44 -3 -93 -7 -109 -10 -20 -3 -33 1 -45 15
-16 19 -115 131 -136 155 -15 16 -152 173 -212 242 -28 32 -69 79 -90 104 -73
86 -148 156 -188 174 -44 21 -152 29 -204 14z m224 -542 c33 -38 65 -74 71
-80 5 -6 39 -45 74 -86 36 -41 69 -80 75 -86 5 -6 33 -38 60 -70 28 -32 57
-65 65 -74 8 -9 39 -44 69 -79 l55 -63 81 6 c45 4 92 8 105 11 26 5 119 12
260 21 47 2 119 7 160 9 90 6 636 6 735 0 203 -11 406 -27 515 -41 19 -2 58
-6 85 -9 l50 -4 155 180 c85 99 171 198 191 220 20 22 56 63 80 91 23 28 55
65 70 82 15 17 36 41 47 53 l19 23 19 -48 c10 -26 19 -49 19 -52 2 -10 57
-176 65 -195 5 -11 34 -94 65 -185 118 -350 106 -321 148 -335 20 -7 37 -11
37 -10 0 2 15 -1 33 -6 17 -6 43 -12 57 -15 86 -17 313 -90 356 -114 49 -28
114 -90 114 -109 0 -4 6 -14 14 -20 7 -6 21 -33 30 -59 10 -26 21 -56 26 -67
5 -11 14 -38 21 -60 6 -22 14 -47 17 -55 3 -8 6 -17 7 -20 1 -3 11 -37 23 -77
20 -65 55 -195 67 -248 18 -82 35 -165 38 -192 3 -17 7 -35 10 -40 3 -4 8 -33
12 -63 4 -30 9 -66 11 -80 2 -14 5 -43 8 -65 2 -22 7 -56 10 -75 16 -87 30
-352 29 -540 -1 -249 -13 -410 -49 -650 -3 -19 -8 -51 -10 -70 -7 -54 -74
-358 -84 -386 -6 -14 -12 -37 -15 -52 -12 -71 -106 -354 -137 -416 -25 -49
-72 -100 -124 -136 -48 -34 -109 -55 -299 -105 -119 -32 -180 -47 -370 -90
-50 -12 -123 -26 -155 -31 -19 -3 -43 -7 -52 -10 -21 -6 -52 -12 -102 -20 -22
-3 -43 -7 -47 -9 -3 -2 -32 -7 -65 -10 -32 -3 -66 -8 -75 -11 -17 -5 -45 -9
-134 -20 -62 -8 -90 -12 -90 -14 0 0 -25 -3 -55 -5 -30 -3 -68 -7 -85 -9 -16
-3 -64 -8 -105 -11 -41 -3 -97 -8 -125 -10 -342 -31 -752 -34 -1155 -10 -192
12 -230 15 -350 30 -19 2 -60 7 -90 10 -30 3 -64 7 -76 9 -11 2 -47 7 -80 10
-32 4 -68 9 -79 11 -18 4 -48 9 -130 20 -16 3 -41 7 -55 10 -14 3 -38 7 -55
10 -44 7 -84 15 -140 25 -27 6 -63 13 -80 16 -16 3 -97 22 -180 41 -82 20
-166 39 -185 43 -43 10 -50 12 -170 46 -52 14 -102 28 -111 29 -9 2 -34 12
-55 23 -115 60 -173 138 -223 302 -6 19 -22 71 -36 115 -21 68 -79 298 -91
360 -2 11 -6 31 -9 45 -2 14 -7 39 -10 55 -3 17 -7 41 -10 55 -7 34 -12 66
-20 125 -4 28 -9 59 -10 70 -5 28 -13 101 -19 160 -26 257 -27 718 -1 950 3
28 8 73 11 100 3 28 7 64 10 80 3 17 7 41 9 55 15 103 21 138 30 180 3 14 7
36 10 50 20 109 72 322 95 395 6 17 26 81 46 142 19 62 40 115 45 118 5 4 7
10 4 15 -10 16 118 136 169 159 27 13 56 24 65 26 9 2 72 19 141 38 153 43
273 72 282 69 9 -2 38 40 42 60 2 7 6 20 9 28 4 8 41 116 83 240 142 419 164
481 170 492 5 7 17 0 33 -18 14 -16 53 -61 86 -98z m4750 -532 c85 -83 139
-167 170 -263 38 -120 27 -319 -25 -446 -7 -16 -16 -39 -19 -50 -30 -86 -126
-261 -230 -420 -80 -123 -91 -135 -92 -103 0 13 -3 32 -5 43 -18 74 -15 89 28
156 70 107 150 253 182 329 10 25 23 54 28 65 42 94 59 291 32 380 -23 78 -74
162 -131 217 -30 29 -66 63 -79 76 -30 28 -31 55 -3 81 30 28 63 13 144 -65z"/>
<path d="M2635 4193 c-100 -19 -182 -81 -228 -173 l-22 -45 0 -740 0 -740 23
-45 c66 -128 190 -191 327 -167 39 7 102 34 110 47 4 6 11 8 16 5 5 -4 9 -3 9
2 0 4 21 19 48 32 26 14 54 30 62 37 8 6 38 24 65 38 28 15 57 31 65 36 67 41
151 90 155 90 3 0 33 17 67 38 35 21 83 50 108 64 42 24 207 118 240 138 8 5
83 48 165 96 83 47 167 102 188 122 82 78 111 209 70 312 -4 8 -7 17 -7 20 -2
9 -50 75 -66 90 -20 19 -78 60 -84 60 -3 0 -31 15 -63 34 -32 19 -77 44 -99
57 -31 18 -490 284 -584 339 -45 26 -263 152 -310 179 -113 65 -188 87 -255
74z m148 -430 c18 -10 34 -20 37 -23 3 -3 16 -11 30 -18 14 -6 32 -16 40 -21
42 -27 242 -141 248 -141 3 0 13 -6 21 -14 9 -7 36 -24 61 -37 25 -13 47 -26
50 -29 3 -3 16 -11 30 -17 14 -7 48 -25 75 -41 28 -16 100 -59 161 -94 174
-101 165 -90 97 -128 -32 -18 -71 -41 -88 -50 -205 -119 -258 -150 -270 -160
-8 -7 -15 -9 -15 -5 0 4 -15 -3 -32 -17 -18 -13 -44 -29 -58 -36 -14 -7 -34
-18 -45 -25 -11 -7 -51 -30 -90 -52 -38 -21 -71 -43 -73 -47 -2 -4 -12 -8 -22
-8 -10 0 -20 -4 -22 -8 -2 -7 -164 -102 -172 -102 -1 0 -2 245 -2 545 0 300 2
545 4 545 2 0 18 -8 35 -17z"/>
</g>
</svg>
